<?xml version="1.0" encoding="UTF-8"?>
<svg id="Layer_1" data-name="Layer 1" xmlns="http://www.w3.org/2000/svg" viewBox="0 0 109 116">
  <defs>
    <style>
      .cls-1 {
        fill: #fff;
      }
    </style>
  </defs>
  <path class="cls-1" d="M109,54.5C109,24.45,84.55,0,54.5,0S0,24.45,0,54.5s24.45,54.5,54.5,54.5c5.8,0,11.4-.92,16.65-2.61l6.85,9.61-1.26-11.76c18.99-8.53,32.26-27.61,32.26-49.74ZM75.53,92.89l-1.06-9.93c-.47-4.37-4.01-7.95-8.41-8.05-1.17-.03-2.36.17-3.52.63h0c-1.39.55-2.56,1.4-3.48,2.45-2.68,3.08-2.69,7.68-.32,11l5.58,7.82c-2.37.44-4.81.69-7.32.69h0c-21.82,0-39.5-17.68-39.5-39.5h0c0-21.82,17.68-39.5,39.5-39.5h0c21.82,0,39.5,17.68,39.5,39.5h0c0,15.12-8.5,28.25-20.97,34.89Z"/>
</svg>
